<mxfile host="app.diagrams.net" modified="2020-03-13T16:25:15.899Z" agent="Mozilla/5.0 (Windows NT 6.3; Win64; x64) AppleWebKit/537.36 (KHTML, like Gecko) Chrome/75.0.3770.80 Safari/537.36" etag="a3YMNAC2yuo80CnPcWz7" version="12.8.4" type="github">
  <diagram id="KAFYEoyELCqili4HDCLj" name="Page-1">
    <mxGraphModel dx="1695" dy="450" grid="1" gridSize="10" guides="1" tooltips="1" connect="1" arrows="1" fold="1" page="1" pageScale="1" pageWidth="827" pageHeight="1169" math="0" shadow="0">
      <root>
        <mxCell id="0" />
        <mxCell id="1" parent="0" />
        <mxCell id="6ykgUVLUnJViRLfpwyXQ-4" value="" style="rounded=1;whiteSpace=wrap;html=1;" vertex="1" parent="1">
          <mxGeometry x="-30" y="30" width="610" height="300" as="geometry" />
        </mxCell>
        <mxCell id="6ykgUVLUnJViRLfpwyXQ-12" value="" style="rounded=0;whiteSpace=wrap;html=1;" vertex="1" parent="1">
          <mxGeometry x="110" y="60" width="440" height="210" as="geometry" />
        </mxCell>
        <mxCell id="6ykgUVLUnJViRLfpwyXQ-7" value="" style="rounded=1;whiteSpace=wrap;html=1;" vertex="1" parent="1">
          <mxGeometry x="130" y="100" width="160" height="140" as="geometry" />
        </mxCell>
        <mxCell id="6ykgUVLUnJViRLfpwyXQ-5" value="" style="rounded=1;whiteSpace=wrap;html=1;" vertex="1" parent="1">
          <mxGeometry x="370" y="100" width="160" height="140" as="geometry" />
        </mxCell>
        <mxCell id="6ykgUVLUnJViRLfpwyXQ-13" value="&lt;font style=&quot;font-size: 18px&quot;&gt;Centos 7&lt;/font&gt;" style="text;html=1;strokeColor=none;fillColor=none;align=center;verticalAlign=middle;whiteSpace=wrap;rounded=0;" vertex="1" parent="1">
          <mxGeometry x="-10" y="70" width="90" height="50" as="geometry" />
        </mxCell>
        <mxCell id="6ykgUVLUnJViRLfpwyXQ-14" value="docker" style="text;html=1;strokeColor=none;fillColor=none;align=center;verticalAlign=middle;whiteSpace=wrap;rounded=0;" vertex="1" parent="1">
          <mxGeometry x="310" y="75" width="40" height="20" as="geometry" />
        </mxCell>
        <mxCell id="6ykgUVLUnJViRLfpwyXQ-15" value="container" style="text;html=1;strokeColor=none;fillColor=none;align=center;verticalAlign=middle;whiteSpace=wrap;rounded=0;" vertex="1" parent="1">
          <mxGeometry x="150" y="130" width="40" height="20" as="geometry" />
        </mxCell>
        <mxCell id="6ykgUVLUnJViRLfpwyXQ-16" value="container" style="text;html=1;strokeColor=none;fillColor=none;align=center;verticalAlign=middle;whiteSpace=wrap;rounded=0;" vertex="1" parent="1">
          <mxGeometry x="394" y="130" width="40" height="20" as="geometry" />
        </mxCell>
        <mxCell id="6ykgUVLUnJViRLfpwyXQ-17" value="jdk 8" style="rounded=1;whiteSpace=wrap;html=1;" vertex="1" parent="1">
          <mxGeometry x="142.5" y="160" width="55" height="60" as="geometry" />
        </mxCell>
        <mxCell id="6ykgUVLUnJViRLfpwyXQ-18" value="tomcat" style="rounded=1;whiteSpace=wrap;html=1;" vertex="1" parent="1">
          <mxGeometry x="220" y="160" width="60" height="60" as="geometry" />
        </mxCell>
        <mxCell id="6ykgUVLUnJViRLfpwyXQ-19" value="mysql" style="rounded=1;whiteSpace=wrap;html=1;" vertex="1" parent="1">
          <mxGeometry x="394" y="170" width="120" height="60" as="geometry" />
        </mxCell>
        <mxCell id="6ykgUVLUnJViRLfpwyXQ-21" value="" style="shape=flexArrow;endArrow=classic;startArrow=classic;html=1;startWidth=18;startSize=5.79;entryX=0;entryY=0.5;entryDx=0;entryDy=0;" edge="1" parent="1" source="6ykgUVLUnJViRLfpwyXQ-7" target="6ykgUVLUnJViRLfpwyXQ-5">
          <mxGeometry width="50" height="50" relative="1" as="geometry">
            <mxPoint x="320" y="240" as="sourcePoint" />
            <mxPoint x="370" y="190" as="targetPoint" />
          </mxGeometry>
        </mxCell>
        <mxCell id="6ykgUVLUnJViRLfpwyXQ-23" value="小程序" style="rounded=1;whiteSpace=wrap;html=1;" vertex="1" parent="1">
          <mxGeometry x="-270" y="155" width="140" height="115" as="geometry" />
        </mxCell>
        <mxCell id="6ykgUVLUnJViRLfpwyXQ-26" value="" style="rounded=0;whiteSpace=wrap;html=1;" vertex="1" parent="1">
          <mxGeometry x="-70" y="180" width="70" height="60" as="geometry" />
        </mxCell>
        <mxCell id="6ykgUVLUnJViRLfpwyXQ-22" value="" style="shape=flexArrow;endArrow=classic;startArrow=classic;html=1;entryX=0;entryY=0.75;entryDx=0;entryDy=0;" edge="1" parent="1" target="6ykgUVLUnJViRLfpwyXQ-7">
          <mxGeometry width="50" height="50" relative="1" as="geometry">
            <mxPoint y="205" as="sourcePoint" />
            <mxPoint x="230" y="300" as="targetPoint" />
          </mxGeometry>
        </mxCell>
        <mxCell id="6ykgUVLUnJViRLfpwyXQ-20" value="端口443" style="text;html=1;strokeColor=none;fillColor=none;align=center;verticalAlign=middle;whiteSpace=wrap;rounded=0;" vertex="1" parent="1">
          <mxGeometry x="-55" y="200" width="40" height="20" as="geometry" />
        </mxCell>
        <mxCell id="6ykgUVLUnJViRLfpwyXQ-27" value="" style="shape=flexArrow;endArrow=classic;startArrow=classic;html=1;entryX=0;entryY=0.5;entryDx=0;entryDy=0;" edge="1" parent="1" target="6ykgUVLUnJViRLfpwyXQ-26">
          <mxGeometry width="50" height="50" relative="1" as="geometry">
            <mxPoint x="-128" y="210" as="sourcePoint" />
            <mxPoint x="-70" y="190" as="targetPoint" />
          </mxGeometry>
        </mxCell>
      </root>
    </mxGraphModel>
  </diagram>
</mxfile>
